<svg width="300" height="150" viewBox="0 0 300 150" fill="none" xmlns="http://www.w3.org/2000/svg">
<rect width="300" height="150" rx="20" fill="#FF9636" fill-opacity="0.15"/>
<rect x="1" y="1" width="298" height="148" rx="19" stroke="#FF9636" stroke-opacity="0.5" stroke-width="2"/>
<path d="M23.21 19.505V18.155H31.205V19.505H27.95V29H26.48V19.505H23.21ZM42.0527 23.57C42.0527 26.87 39.8927 29.18 36.8177 29.18C33.7577 29.18 31.6277 26.87 31.6277 23.57C31.6277 20.285 33.7727 17.96 36.8327 17.96C39.9077 17.96 42.0527 20.27 42.0527 23.57ZM40.5077 23.57C40.5077 21.05 39.0377 19.385 36.8327 19.385C34.6277 19.385 33.1727 21.05 33.1727 23.57C33.1727 26.09 34.6277 27.77 36.8327 27.77C39.0377 27.77 40.5077 26.075 40.5077 23.57ZM45.4029 29H43.9329V18.155H45.4029L50.9529 26.54V18.155H52.4229V29H50.9529L45.4029 20.615V29ZM58 19.505V18.155H65.995V19.505H62.74V29H61.27V19.505H58ZM66.9414 29H65.4114L69.3714 18.155H71.0064L74.9814 29H73.4364L72.4614 26.3H67.9014L66.9414 29ZM70.0014 20.495L68.3514 25.025H72.0264L70.3614 20.495C70.2864 20.285 70.2114 20.03 70.1814 19.865C70.1514 20.015 70.0764 20.27 70.0014 20.495ZM75.894 25.145V18.155H77.364V25.055C77.364 26.795 78.324 27.755 80.049 27.755C81.759 27.755 82.704 26.78 82.704 25.055V18.155H84.189V25.145C84.189 27.635 82.599 29.18 80.049 29.18C77.484 29.18 75.894 27.65 75.894 25.145ZM89.333 23.585L85.628 18.155H87.383L89.078 20.57C89.558 21.275 89.918 21.875 90.233 22.475L93.098 18.155H94.793L91.163 23.57L94.838 29H93.098L91.433 26.615C91.013 26 90.608 25.34 90.248 24.71L87.338 29H85.613L89.333 23.585ZM103.988 29H100.403V18.155H103.928C107.168 18.155 109.358 20.345 109.358 23.585C109.358 26.81 107.198 29 103.988 29ZM103.823 19.505H101.873V27.635H103.883C106.298 27.635 107.828 26.075 107.828 23.585C107.828 21.065 106.298 19.505 103.823 19.505ZM117.843 29H111.228V18.155H117.843V19.505H112.698V22.895H117.333V24.2H112.698V27.635H117.843V29ZM125.544 29H124.074V18.155H128.169C130.494 18.155 131.874 19.385 131.874 21.41C131.874 22.91 131.124 23.99 129.774 24.425L131.979 29H130.344L128.319 24.71H125.544V29ZM125.544 19.475V23.405H128.184C129.549 23.405 130.329 22.67 130.329 21.425C130.329 20.165 129.519 19.475 128.169 19.475H125.544ZM139.004 15.365L137.699 17.36H136.619L137.624 15.365H139.004ZM140.504 29H133.889V18.155H140.504V19.505H135.359V22.895H139.994V24.2H135.359V27.635H140.504V29ZM142.559 25.145V18.155H144.029V25.055C144.029 26.795 144.989 27.755 146.714 27.755C148.424 27.755 149.369 26.78 149.369 25.055V18.155H150.854V25.145C150.854 27.635 149.264 29.18 146.714 29.18C144.149 29.18 142.559 27.65 142.559 25.145ZM152.668 21.08C152.668 19.22 154.168 17.96 156.403 17.96C158.473 17.96 159.808 19.115 159.928 20.99H158.443C158.368 19.91 157.603 19.28 156.388 19.28C155.023 19.28 154.138 19.97 154.138 21.035C154.138 21.905 154.633 22.43 155.653 22.67L157.438 23.09C159.208 23.495 160.108 24.455 160.108 25.985C160.108 27.935 158.593 29.18 156.283 29.18C154.078 29.18 152.608 28.025 152.518 26.165H154.018C154.048 27.2 154.918 27.86 156.283 27.86C157.723 27.86 158.638 27.185 158.638 26.105C158.638 25.25 158.173 24.71 157.138 24.47L155.353 24.065C153.583 23.66 152.668 22.64 152.668 21.08ZM161.384 21.08C161.384 19.22 162.884 17.96 165.119 17.96C167.189 17.96 168.524 19.115 168.644 20.99H167.159C167.084 19.91 166.319 19.28 165.104 19.28C163.739 19.28 162.854 19.97 162.854 21.035C162.854 21.905 163.349 22.43 164.369 22.67L166.154 23.09C167.924 23.495 168.824 24.455 168.824 25.985C168.824 27.935 167.309 29.18 164.999 29.18C162.794 29.18 161.324 28.025 161.234 26.165H162.734C162.764 27.2 163.634 27.86 164.999 27.86C166.439 27.86 167.354 27.185 167.354 26.105C167.354 25.25 166.889 24.71 165.854 24.47L164.069 24.065C162.299 23.66 161.384 22.64 161.384 21.08ZM172.141 18.155V29H170.671V18.155H172.141ZM173.62 19.505V18.155H181.615V19.505H178.36V29H176.89V19.505H173.62ZM189.708 29H183.093V18.155H189.708V19.505H184.563V22.895H189.198V24.2H184.563V27.635H189.708V29Z" fill="#FF9636" fill-opacity="0.75"/>
<path d="M47.008 96.136C47.008 90.568 50.272 86.088 55.392 84.232C51.04 82.376 48.672 78.728 48.672 74.056C48.672 66.824 54.88 61.896 64.096 61.896C73.184 61.896 79.328 66.824 79.328 74.12C79.328 78.856 76.896 82.504 72.544 84.232C77.728 85.896 81.056 90.504 81.056 96.2C81.056 104.328 74.272 109.768 64.032 109.768C53.728 109.768 47.008 104.328 47.008 96.136ZM54.432 74.44C54.432 78.984 58.208 81.928 63.968 81.928C69.792 81.928 73.44 79.048 73.44 74.568C73.44 70.152 69.792 67.336 63.968 67.336C58.208 67.336 54.432 70.152 54.432 74.44ZM53.152 95.688C53.152 100.872 57.44 104.2 64.032 104.2C70.56 104.2 74.848 100.872 74.848 95.688C74.848 90.568 70.624 87.304 63.968 87.304C57.376 87.304 53.152 90.568 53.152 95.688ZM117.301 108.936L86.069 109V104.2L100.981 91.336C108.469 84.872 110.581 81.736 110.581 76.808C110.581 70.984 107.253 67.528 101.685 67.528C95.989 67.528 92.277 71.688 92.149 78.28H85.877C86.069 68.36 92.341 61.896 101.749 61.896C111.029 61.896 116.981 67.528 116.981 76.424C116.981 83.016 113.717 87.688 105.525 94.792L95.925 103.112H117.301V108.936ZM145.986 73.672C145.986 80.52 141.122 85.448 134.274 85.448C127.49 85.448 122.626 80.52 122.626 73.672C122.626 66.76 127.49 61.832 134.274 61.832C141.122 61.832 145.986 66.76 145.986 73.672ZM170.37 62.792L135.234 109H129.09L164.226 62.792H170.37ZM141.058 73.672C141.058 69.512 138.306 66.632 134.274 66.632C130.306 66.632 127.554 69.512 127.554 73.672C127.554 77.768 130.306 80.648 134.274 80.648C138.242 80.648 141.058 77.768 141.058 73.672ZM176.962 98.056C176.962 104.904 172.034 109.832 165.25 109.832C158.466 109.832 153.538 104.904 153.538 98.056C153.538 91.144 158.466 86.28 165.25 86.28C172.034 86.28 176.962 91.144 176.962 98.056ZM171.97 98.056C171.97 93.896 169.282 91.016 165.25 91.016C161.282 91.016 158.53 93.896 158.53 98.056C158.53 102.152 161.282 105.032 165.25 105.032C169.218 105.032 171.97 102.152 171.97 98.056Z" fill="#FF9636"/>
<path d="M186.434 107.096H187.358C187.358 107.88 187.946 108.37 188.898 108.37C189.948 108.37 190.564 107.922 190.564 107.194C190.564 106.634 190.284 106.312 189.486 106.116L188.324 105.822C187.148 105.528 186.574 104.912 186.574 103.988C186.574 102.798 187.568 102.042 189.024 102.042C190.452 102.042 191.376 102.826 191.418 104.086H190.48C190.452 103.302 189.906 102.84 188.996 102.84C188.044 102.84 187.512 103.246 187.512 103.974C187.512 104.492 187.876 104.856 188.618 105.038L189.78 105.332C190.956 105.626 191.488 106.172 191.488 107.152C191.488 108.37 190.452 109.168 188.912 109.168C187.386 109.168 186.434 108.356 186.434 107.096ZM197.838 102.224H198.804V109H197.964L197.838 107.852C197.46 108.636 196.522 109.168 195.458 109.168C193.862 109.168 192.994 108.076 192.994 106.424V102.21H193.974V106.116C193.974 107.726 194.688 108.3 195.766 108.3C197.068 108.3 197.838 107.432 197.838 105.822V102.224ZM204.359 102.14V103.008H203.827C202.581 103.008 201.783 103.848 201.783 105.136V109H200.817V102.224H201.727L201.797 103.274C202.063 102.546 202.777 102.07 203.729 102.07C203.939 102.07 204.121 102.084 204.359 102.14ZM212.06 103.624H211.262V102.924L214.356 99.872H209.554V98.976H215.63V99.788L212.634 102.77C214.51 102.868 215.854 104.058 215.854 105.878C215.854 107.866 214.398 109.168 212.368 109.168C210.394 109.168 209.064 107.95 209.064 105.948H210.058C210.058 107.39 210.954 108.258 212.368 108.258C213.866 108.258 214.832 107.306 214.832 105.85C214.832 104.478 213.852 103.624 212.06 103.624ZM224.207 109.168C222.219 109.168 220.889 107.74 220.889 105.612C220.889 103.498 222.205 102.042 224.137 102.042C225.971 102.042 227.217 103.344 227.217 105.262V105.738H221.827C221.897 107.39 222.765 108.342 224.221 108.342C225.327 108.342 226.041 107.866 226.293 106.97H227.217C226.853 108.398 225.803 109.168 224.207 109.168ZM224.137 102.868C222.863 102.868 222.023 103.708 221.855 105.038H226.251C226.251 103.736 225.411 102.868 224.137 102.868ZM228.188 107.096H229.112C229.112 107.88 229.7 108.37 230.652 108.37C231.702 108.37 232.318 107.922 232.318 107.194C232.318 106.634 232.038 106.312 231.24 106.116L230.078 105.822C228.902 105.528 228.328 104.912 228.328 103.988C228.328 102.798 229.322 102.042 230.778 102.042C232.206 102.042 233.13 102.826 233.172 104.086H232.234C232.206 103.302 231.66 102.84 230.75 102.84C229.798 102.84 229.266 103.246 229.266 103.974C229.266 104.492 229.63 104.856 230.372 105.038L231.534 105.332C232.71 105.626 233.242 106.172 233.242 107.152C233.242 108.37 232.206 109.168 230.666 109.168C229.14 109.168 228.188 108.356 228.188 107.096ZM234.258 107.096H235.182C235.182 107.88 235.77 108.37 236.722 108.37C237.772 108.37 238.388 107.922 238.388 107.194C238.388 106.634 238.108 106.312 237.31 106.116L236.148 105.822C234.972 105.528 234.398 104.912 234.398 103.988C234.398 102.798 235.392 102.042 236.848 102.042C238.276 102.042 239.2 102.826 239.242 104.086H238.304C238.276 103.302 237.73 102.84 236.82 102.84C235.868 102.84 235.336 103.246 235.336 103.974C235.336 104.492 235.7 104.856 236.442 105.038L237.604 105.332C238.78 105.626 239.312 106.172 239.312 107.152C239.312 108.37 238.276 109.168 236.736 109.168C235.21 109.168 234.258 108.356 234.258 107.096ZM242.849 109.168C241.407 109.168 240.553 108.356 240.553 107.166C240.553 105.92 241.505 105.136 243.087 105.01L245.327 104.828V104.604C245.327 103.274 244.529 102.854 243.535 102.854C242.359 102.854 241.659 103.386 241.659 104.296H240.777C240.777 102.924 241.897 102.042 243.563 102.042C245.131 102.042 246.279 102.826 246.279 104.618V109H245.467L245.341 107.81C244.921 108.664 243.997 109.168 242.849 109.168ZM243.073 108.384C244.501 108.384 245.327 107.39 245.327 105.92V105.556L243.325 105.71C242.051 105.822 241.533 106.382 241.533 107.138C241.533 107.964 242.149 108.384 243.073 108.384ZM248.693 100.362C248.301 100.362 247.979 100.04 247.979 99.648C247.979 99.256 248.301 98.92 248.693 98.92C249.085 98.92 249.421 99.256 249.421 99.648C249.421 100.04 249.085 100.362 248.693 100.362ZM248.217 109V102.224H249.183V109H248.217ZM250.623 107.096H251.547C251.547 107.88 252.135 108.37 253.087 108.37C254.137 108.37 254.753 107.922 254.753 107.194C254.753 106.634 254.473 106.312 253.675 106.116L252.513 105.822C251.337 105.528 250.763 104.912 250.763 103.988C250.763 102.798 251.757 102.042 253.213 102.042C254.641 102.042 255.565 102.826 255.607 104.086H254.669C254.641 103.302 254.095 102.84 253.185 102.84C252.233 102.84 251.701 103.246 251.701 103.974C251.701 104.492 252.065 104.856 252.807 105.038L253.969 105.332C255.145 105.626 255.677 106.172 255.677 107.152C255.677 108.37 254.641 109.168 253.101 109.168C251.575 109.168 250.623 108.356 250.623 107.096Z" fill="#FF9636"/>
</svg>
