<svg width="800" height="399" viewBox="0 0 800 399" fill="none" xmlns="http://www.w3.org/2000/svg">
<rect x="1.5" y="1.5" width="797" height="396" rx="18.5" stroke="white" stroke-opacity="0.15" stroke-width="3"/>
<path d="M200.267 40.824H193.739V48H190.667V30.456H201.515V33.288H193.739V38.064H200.267V40.824ZM211.65 31.176L209.298 34.728H207.138L208.938 31.176H211.65ZM208.242 48.312C204.714 48.312 202.242 45.744 202.242 42.072C202.242 38.352 204.666 35.784 208.146 35.784C211.698 35.784 213.954 38.16 213.954 41.856V42.744L205.026 42.768C205.242 44.856 206.346 45.912 208.29 45.912C209.898 45.912 210.954 45.288 211.29 44.16H214.002C213.498 46.752 211.338 48.312 208.242 48.312ZM208.17 38.184C206.442 38.184 205.386 39.12 205.098 40.896H211.05C211.05 39.264 209.922 38.184 208.17 38.184ZM219.249 48H216.345V30.144H219.249V48ZM223.785 33.768C222.777 33.768 221.985 32.976 221.985 31.992C221.985 31.008 222.777 30.24 223.785 30.24C224.745 30.24 225.537 31.008 225.537 31.992C225.537 32.976 224.745 33.768 223.785 33.768ZM222.321 48V36.144H225.249V48H222.321ZM227.578 42.048C227.578 38.376 230.002 35.784 233.506 35.784C236.746 35.784 238.954 37.584 239.266 40.44H236.338C236.002 39.096 235.018 38.4 233.626 38.4C231.754 38.4 230.506 39.816 230.506 42.048C230.506 44.28 231.658 45.672 233.53 45.672C234.994 45.672 236.026 44.952 236.338 43.656H239.29C238.93 46.416 236.626 48.312 233.53 48.312C229.93 48.312 227.578 45.816 227.578 42.048ZM242.933 33.768C241.925 33.768 241.133 32.976 241.133 31.992C241.133 31.008 241.925 30.24 242.933 30.24C243.893 30.24 244.685 31.008 244.685 31.992C244.685 32.976 243.893 33.768 242.933 33.768ZM241.469 48V36.144H244.397V48H241.469ZM251.454 48H248.526V38.592H246.246V36.144H248.526V32.448H251.454V36.144H253.758V38.592H251.454V48ZM259.036 48.312C256.516 48.312 254.98 46.848 254.98 44.616C254.98 42.432 256.564 41.064 259.372 40.848L262.924 40.584V40.32C262.924 38.712 261.964 38.064 260.476 38.064C258.748 38.064 257.788 38.784 257.788 40.032H255.292C255.292 37.464 257.404 35.784 260.62 35.784C263.812 35.784 265.78 37.512 265.78 40.8V48H263.212L262.996 46.248C262.492 47.472 260.884 48.312 259.036 48.312ZM259.996 46.104C261.796 46.104 262.948 45.024 262.948 43.2V42.576L260.476 42.768C258.652 42.936 257.956 43.536 257.956 44.496C257.956 45.576 258.676 46.104 259.996 46.104ZM272.524 48H269.596V38.592H267.316V36.144H269.596V32.448H272.524V36.144H274.828V38.592H272.524V48ZM278.113 33.768C277.105 33.768 276.313 32.976 276.313 31.992C276.313 31.008 277.105 30.24 278.113 30.24C279.073 30.24 279.865 31.008 279.865 31.992C279.865 32.976 279.073 33.768 278.113 33.768ZM276.649 48V36.144H279.577V48H276.649ZM281.906 42.048C281.906 38.352 284.57 35.808 288.242 35.808C291.914 35.808 294.578 38.352 294.578 42.048C294.578 45.744 291.914 48.288 288.242 48.288C284.57 48.288 281.906 45.744 281.906 42.048ZM284.834 42.048C284.834 44.208 286.226 45.672 288.242 45.672C290.258 45.672 291.65 44.208 291.65 42.048C291.65 39.888 290.258 38.424 288.242 38.424C286.226 38.424 284.834 39.888 284.834 42.048ZM299.827 48H296.899V36.144H299.611L299.851 37.68C300.595 36.48 302.035 35.784 303.643 35.784C306.619 35.784 308.155 37.632 308.155 40.704V48H305.227V41.4C305.227 39.408 304.243 38.448 302.731 38.448C300.931 38.448 299.827 39.696 299.827 41.616V48Z" fill="#FF9636"/>
<path d="M314.536 47.064C314.536 48.792 313.24 50.232 311.536 50.448V49.44C312.52 49.272 313.216 48.624 313.216 47.88C313.048 47.976 312.856 48.024 312.568 48.024C311.776 48.024 311.104 47.448 311.104 46.56C311.104 45.6 311.752 44.904 312.712 44.904C313.72 44.904 314.536 45.744 314.536 47.064ZM327.083 30.648V45.816H334.715V48H324.731V30.648H327.083ZM340.318 48.288C337.798 48.288 336.31 46.872 336.31 44.736C336.31 42.576 337.918 41.232 340.678 41.016L344.374 40.728V40.392C344.374 38.424 343.198 37.728 341.614 37.728C339.718 37.728 338.638 38.568 338.638 39.984H336.67C336.67 37.536 338.686 35.928 341.71 35.928C344.614 35.928 346.582 37.464 346.582 40.632V48H344.662L344.422 46.104C343.822 47.448 342.214 48.288 340.318 48.288ZM340.966 46.536C343.102 46.536 344.398 45.144 344.398 42.936V42.312L341.398 42.552C339.406 42.744 338.59 43.512 338.59 44.664C338.59 45.912 339.502 46.536 340.966 46.536ZM355.525 41.832C355.525 38.52 357.661 35.928 361.069 35.928C362.965 35.928 364.429 36.792 365.173 38.256L365.341 36.264H367.357V47.52C367.357 51.216 365.077 53.568 361.477 53.568C358.285 53.568 356.101 51.768 355.669 48.792H357.925C358.213 50.52 359.509 51.528 361.477 51.528C363.685 51.528 365.125 50.088 365.125 47.856V45.504C364.357 46.872 362.821 47.688 360.973 47.688C357.637 47.688 355.525 45.12 355.525 41.832ZM357.781 41.784C357.781 43.992 359.149 45.72 361.357 45.72C363.637 45.72 365.029 44.088 365.029 41.784C365.029 39.528 363.685 37.896 361.381 37.896C359.125 37.896 357.781 39.624 357.781 41.784ZM378.58 31.704L376.516 34.896H374.764L376.372 31.704H378.58ZM375.676 48.288C372.22 48.288 369.844 45.792 369.844 42.144C369.844 38.472 372.172 35.928 375.58 35.928C378.916 35.928 381.1 38.232 381.1 41.712V42.552L372.028 42.576C372.196 45.048 373.492 46.416 375.724 46.416C377.476 46.416 378.628 45.696 379.012 44.352H381.124C380.548 46.872 378.58 48.288 375.676 48.288ZM375.58 37.824C373.612 37.824 372.364 39 372.076 41.064H378.844C378.844 39.12 377.572 37.824 375.58 37.824ZM385.876 48H383.62V36.264H385.66L385.9 38.064C386.644 36.72 388.132 35.928 389.788 35.928C392.884 35.928 394.3 37.824 394.3 40.824V48H392.044V41.328C392.044 38.952 390.94 37.992 389.212 37.992C387.1 37.992 385.876 39.504 385.876 41.784V48ZM405.393 31.704L403.329 34.896H401.577L403.185 31.704H405.393ZM402.489 48.288C399.033 48.288 396.657 45.792 396.657 42.144C396.657 38.472 398.985 35.928 402.393 35.928C405.729 35.928 407.913 38.232 407.913 41.712V42.552L398.841 42.576C399.009 45.048 400.305 46.416 402.537 46.416C404.289 46.416 405.441 45.696 405.825 44.352H407.937C407.361 46.872 405.393 48.288 402.489 48.288ZM402.393 37.824C400.425 37.824 399.177 39 398.889 41.064H405.657C405.657 39.12 404.385 37.824 402.393 37.824ZM417.153 36.168V38.232H416.145C414.009 38.232 412.689 39.528 412.689 41.784V48H410.433V36.288H412.545L412.689 38.064C413.169 36.84 414.345 36.024 415.953 36.024C416.361 36.024 416.697 36.072 417.153 36.168ZM422.232 48.288C419.712 48.288 418.224 46.872 418.224 44.736C418.224 42.576 419.832 41.232 422.592 41.016L426.288 40.728V40.392C426.288 38.424 425.112 37.728 423.528 37.728C421.632 37.728 420.552 38.568 420.552 39.984H418.584C418.584 37.536 420.6 35.928 423.624 35.928C426.528 35.928 428.496 37.464 428.496 40.632V48H426.576L426.336 46.104C425.736 47.448 424.128 48.288 422.232 48.288ZM422.88 46.536C425.016 46.536 426.312 45.144 426.312 42.936V42.312L423.312 42.552C421.32 42.744 420.504 43.512 420.504 44.664C420.504 45.912 421.416 46.536 422.88 46.536ZM434.745 48H432.489V38.16H430.185V36.264H432.489V32.592H434.745V36.264H437.049V38.16H434.745V48ZM440.177 33.48C439.361 33.48 438.689 32.808 438.689 31.992C438.689 31.152 439.361 30.504 440.177 30.504C440.993 30.504 441.665 31.152 441.665 31.992C441.665 32.808 440.993 33.48 440.177 33.48ZM439.073 48V36.264H441.329V48H439.073ZM443.837 42.12C443.837 38.496 446.429 35.952 449.957 35.952C453.461 35.952 456.053 38.496 456.053 42.12C456.053 45.744 453.461 48.288 449.957 48.288C446.429 48.288 443.837 45.744 443.837 42.12ZM446.117 42.12C446.117 44.568 447.677 46.272 449.957 46.272C452.213 46.272 453.797 44.568 453.797 42.12C453.797 39.672 452.213 37.968 449.957 37.968C447.677 37.968 446.117 39.672 446.117 42.12ZM460.806 48H458.55V36.264H460.59L460.83 38.064C461.574 36.72 463.062 35.928 464.718 35.928C467.814 35.928 469.23 37.824 469.23 40.824V48H466.974V41.328C466.974 38.952 465.87 37.992 464.142 37.992C462.03 37.992 460.806 39.504 460.806 41.784V48ZM483.981 48.288C480.525 48.288 478.149 45.792 478.149 42.144C478.149 38.472 480.477 35.928 483.885 35.928C487.221 35.928 489.405 38.232 489.405 41.712V42.552L480.333 42.576C480.501 45.048 481.797 46.416 484.029 46.416C485.781 46.416 486.933 45.696 487.317 44.352H489.429C488.853 46.872 486.885 48.288 483.981 48.288ZM483.885 37.824C481.917 37.824 480.669 39 480.381 41.064H487.149C487.149 39.12 485.877 37.824 483.885 37.824ZM490.965 44.592H493.125C493.125 45.792 494.037 46.512 495.525 46.512C497.109 46.512 498.021 45.864 498.021 44.784C498.021 43.992 497.637 43.512 496.413 43.2L494.349 42.72C492.261 42.216 491.277 41.184 491.277 39.456C491.277 37.296 493.101 35.928 495.693 35.928C498.261 35.928 499.941 37.368 499.989 39.6H497.829C497.781 38.424 496.989 37.68 495.621 37.68C494.205 37.68 493.413 38.304 493.413 39.384C493.413 40.176 493.989 40.704 495.141 40.992L497.205 41.496C499.197 41.976 500.181 42.888 500.181 44.64C500.181 46.872 498.261 48.288 495.477 48.288C492.717 48.288 490.965 46.824 490.965 44.592ZM505.995 48H503.739V38.16H501.435V36.264H503.739V32.592H505.995V36.264H508.299V38.16H505.995V48ZM520.198 48H517.942V38.16H515.638V36.264H517.942V32.592H520.198V36.264H522.502V38.16H520.198V48ZM529.473 48.288C526.017 48.288 523.641 45.792 523.641 42.144C523.641 38.472 525.969 35.928 529.377 35.928C532.713 35.928 534.897 38.232 534.897 41.712V42.552L525.825 42.576C525.993 45.048 527.289 46.416 529.521 46.416C531.273 46.416 532.425 45.696 532.809 44.352H534.921C534.345 46.872 532.377 48.288 529.473 48.288ZM529.377 37.824C527.409 37.824 526.161 39 525.873 41.064H532.641C532.641 39.12 531.369 37.824 529.377 37.824ZM544.137 36.168V38.232H543.129C540.993 38.232 539.673 39.528 539.673 41.784V48H537.417V36.288H539.529L539.673 38.064C540.153 36.84 541.329 36.024 542.937 36.024C543.345 36.024 543.681 36.072 544.137 36.168ZM548.509 48H546.253V36.264H548.269L548.485 37.8C549.085 36.696 550.333 35.928 551.989 35.928C553.813 35.928 555.109 36.84 555.709 38.304C556.261 36.84 557.677 35.928 559.501 35.928C562.189 35.928 563.821 37.608 563.821 40.32V48H561.613V40.872C561.613 39.024 560.581 37.968 558.997 37.968C557.293 37.968 556.165 39.168 556.165 41.04V48H553.933V40.848C553.933 39 552.925 37.992 551.341 37.992C549.637 37.992 548.509 39.168 548.509 41.04V48ZM568.052 33.48C567.236 33.48 566.564 32.808 566.564 31.992C566.564 31.152 567.236 30.504 568.052 30.504C568.868 30.504 569.54 31.152 569.54 31.992C569.54 32.808 568.868 33.48 568.052 33.48ZM566.948 48V36.264H569.204V48H566.948ZM574.736 48H572.48V36.264H574.52L574.76 38.064C575.504 36.72 576.992 35.928 578.648 35.928C581.744 35.928 583.16 37.824 583.16 40.824V48H580.904V41.328C580.904 38.952 579.8 37.992 578.072 37.992C575.96 37.992 574.736 39.504 574.736 41.784V48ZM594.252 31.704L592.188 34.896H590.436L592.044 31.704H594.252ZM591.348 48.288C587.892 48.288 585.516 45.792 585.516 42.144C585.516 38.472 587.844 35.928 591.252 35.928C594.588 35.928 596.772 38.232 596.772 41.712V42.552L587.7 42.576C587.868 45.048 589.164 46.416 591.396 46.416C593.148 46.416 594.3 45.696 594.684 44.352H596.796C596.22 46.872 594.252 48.288 591.348 48.288ZM591.252 37.824C589.284 37.824 588.036 39 587.748 41.064H594.516C594.516 39.12 593.244 37.824 591.252 37.824ZM608.615 42.792H606.863C606.623 40.992 606.455 37.8 606.455 34.68V30.648H609.047V34.68C609.047 37.848 608.855 41.016 608.615 42.792ZM607.751 48.336C606.791 48.336 606.023 47.568 606.023 46.632C606.023 45.696 606.791 44.928 607.751 44.928C608.663 44.928 609.455 45.696 609.455 46.632C609.455 47.568 608.663 48.336 607.751 48.336Z" fill="white"/>
<path d="M183.721 72L179.741 62.4H180.721L183.581 69.38C183.781 69.88 183.981 70.38 184.201 71.06C184.401 70.38 184.601 69.92 184.821 69.38L187.681 62.4H188.641L184.661 72H183.721ZM189.247 67.2C189.247 64.3 191.267 62.16 194.007 62.16C196.747 62.16 198.767 64.3 198.767 67.2C198.767 70.1 196.747 72.24 194.007 72.24C191.267 72.24 189.247 70.1 189.247 67.2ZM190.187 67.2C190.187 69.66 191.767 71.4 194.007 71.4C196.247 71.4 197.827 69.66 197.827 67.2C197.827 64.74 196.247 63 194.007 63C191.767 63 190.187 64.74 190.187 67.2ZM207.686 62.4H208.606V72H207.866L207.686 70.22C207.166 71.42 205.806 72.24 204.206 72.24C201.906 72.24 200.726 70.66 200.726 68.32V62.38H201.666V68.08C201.666 70.54 202.826 71.4 204.426 71.4C206.446 71.4 207.686 70 207.686 67.52V62.4ZM210.592 69.4H211.492C211.492 70.64 212.412 71.4 213.892 71.4C215.512 71.4 216.512 70.68 216.512 69.5C216.512 68.56 216.052 68.08 214.812 67.76L213.192 67.34C211.552 66.92 210.772 66 210.772 64.82C210.772 63.22 212.092 62.16 214.072 62.16C216.052 62.16 217.292 63.22 217.352 64.96H216.452C216.392 63.72 215.512 63 214.072 63C212.532 63 211.692 63.64 211.692 64.82C211.692 65.64 212.252 66.22 213.412 66.52L215.012 66.94C216.692 67.38 217.432 68.16 217.432 69.5C217.432 71.14 216.032 72.24 213.932 72.24C211.892 72.24 210.592 71.14 210.592 69.4ZM230.075 62.26V63.06H229.355C227.575 63.06 226.415 64.36 226.415 66.16V72H225.495V62.4H226.355L226.435 63.94C226.815 62.86 227.875 62.16 229.235 62.16C229.535 62.16 229.755 62.18 230.075 62.26ZM235.508 72.24C232.728 72.24 230.888 70.24 230.888 67.22C230.888 64.22 232.708 62.16 235.388 62.16C237.888 62.16 239.608 63.96 239.608 66.58V67.22H231.808C231.888 69.84 233.248 71.4 235.508 71.4C237.208 71.4 238.288 70.66 238.668 69.24H239.608C239.048 71.22 237.668 72.24 235.508 72.24ZM235.388 63C233.428 63 232.048 64.36 231.828 66.46H238.668C238.668 64.38 237.368 63 235.388 63ZM243.563 72H242.643V63.2H240.703V62.4H242.643V59.36H243.563V62.4H245.503V63.2H243.563V72ZM252.008 62.26V63.06H251.288C249.508 63.06 248.348 64.36 248.348 66.16V72H247.428V62.4H248.288L248.368 63.94C248.748 62.86 249.808 62.16 251.168 62.16C251.468 62.16 251.688 62.18 252.008 62.26ZM252.821 67.2C252.821 64.3 254.841 62.16 257.581 62.16C260.321 62.16 262.341 64.3 262.341 67.2C262.341 70.1 260.321 72.24 257.581 72.24C254.841 72.24 252.821 70.1 252.821 67.2ZM253.761 67.2C253.761 69.66 255.341 71.4 257.581 71.4C259.821 71.4 261.401 69.66 261.401 67.2C261.401 64.74 259.821 63 257.581 63C255.341 63 253.761 64.74 253.761 67.2ZM271.26 62.4H272.18V72H271.44L271.26 70.22C270.74 71.42 269.38 72.24 267.78 72.24C265.48 72.24 264.3 70.66 264.3 68.32V62.38H265.24V68.08C265.24 70.54 266.4 71.4 268 71.4C270.02 71.4 271.26 70 271.26 67.52V62.4ZM277.881 72L273.901 62.4H274.881L277.741 69.38C277.941 69.88 278.141 70.38 278.361 71.06C278.561 70.38 278.761 69.92 278.981 69.38L281.841 62.4H282.801L278.821 72H277.881ZM288.027 72.24C285.247 72.24 283.407 70.24 283.407 67.22C283.407 64.22 285.227 62.16 287.907 62.16C290.407 62.16 292.127 63.96 292.127 66.58V67.22H284.327C284.407 69.84 285.767 71.4 288.027 71.4C289.727 71.4 290.807 70.66 291.187 69.24H292.127C291.567 71.22 290.187 72.24 288.027 72.24ZM287.907 63C285.947 63 284.567 64.36 284.347 66.46H291.187C291.187 64.38 289.887 63 287.907 63ZM299.02 62.26V63.06H298.3C296.52 63.06 295.36 64.36 295.36 66.16V72H294.44V62.4H295.3L295.38 63.94C295.76 62.86 296.82 62.16 298.18 62.16C298.48 62.16 298.7 62.18 299.02 62.26ZM304.453 72.24C301.673 72.24 299.833 70.24 299.833 67.22C299.833 64.22 301.653 62.16 304.333 62.16C306.833 62.16 308.553 63.96 308.553 66.58V67.22H300.753C300.833 69.84 302.193 71.4 304.453 71.4C306.153 71.4 307.233 70.66 307.613 69.24H308.553C307.993 71.22 306.613 72.24 304.453 72.24ZM304.333 63C302.373 63 300.993 64.36 300.773 66.46H307.613C307.613 64.38 306.313 63 304.333 63ZM316.95 72H309.95V71.28L315.85 63.2H309.95V62.4H316.95V63.14L311.07 71.2H316.95V72ZM324.15 67.24C324.15 64.2 325.95 62.16 328.71 62.16C330.77 62.16 332.31 63.38 332.75 65.2H331.81C331.41 63.78 330.13 62.98 328.71 62.98C326.57 62.98 325.05 64.62 325.05 67.22C325.05 69.7 326.45 71.4 328.59 71.4C330.13 71.4 331.41 70.52 331.85 69.22H332.79C332.27 71.04 330.63 72.24 328.59 72.24C325.95 72.24 324.15 70.24 324.15 67.24ZM338.906 72.24C336.126 72.24 334.286 70.24 334.286 67.22C334.286 64.22 336.106 62.16 338.786 62.16C341.286 62.16 343.006 63.96 343.006 66.58V67.22H335.206C335.286 69.84 336.646 71.4 338.906 71.4C340.606 71.4 341.686 70.66 342.066 69.24H343.006C342.446 71.22 341.066 72.24 338.906 72.24ZM338.786 63C336.826 63 335.446 64.36 335.226 66.46H342.066C342.066 64.38 340.766 63 338.786 63ZM350.204 67.24C350.204 64.2 352.004 62.16 354.764 62.16C356.824 62.16 358.364 63.38 358.804 65.2H357.864C357.464 63.78 356.184 62.98 354.764 62.98C352.624 62.98 351.104 64.62 351.104 67.22C351.104 69.7 352.504 71.4 354.644 71.4C356.184 71.4 357.464 70.52 357.904 69.22H358.844C358.324 71.04 356.684 72.24 354.644 72.24C352.004 72.24 350.204 70.24 350.204 67.24ZM360.341 67.2C360.341 64.3 362.361 62.16 365.101 62.16C367.841 62.16 369.861 64.3 369.861 67.2C369.861 70.1 367.841 72.24 365.101 72.24C362.361 72.24 360.341 70.1 360.341 67.2ZM361.281 67.2C361.281 69.66 362.861 71.4 365.101 71.4C367.341 71.4 368.921 69.66 368.921 67.2C368.921 64.74 367.341 63 365.101 63C362.861 63 361.281 64.74 361.281 67.2ZM378.78 62.4H379.7V72H378.96L378.78 70.22C378.26 71.42 376.9 72.24 375.3 72.24C373 72.24 371.82 70.66 371.82 68.32V62.38H372.76V68.08C372.76 70.54 373.92 71.4 375.52 71.4C377.54 71.4 378.78 70 378.78 67.52V62.4ZM387.321 62.26V63.06H386.601C384.821 63.06 383.661 64.36 383.661 66.16V72H382.741V62.4H383.601L383.681 63.94C384.061 62.86 385.121 62.16 386.481 62.16C386.781 62.16 387.001 62.18 387.321 62.26ZM388.385 69.4H389.285C389.285 70.64 390.205 71.4 391.685 71.4C393.305 71.4 394.305 70.68 394.305 69.5C394.305 68.56 393.845 68.08 392.605 67.76L390.985 67.34C389.345 66.92 388.565 66 388.565 64.82C388.565 63.22 389.885 62.16 391.865 62.16C393.845 62.16 395.085 63.22 395.145 64.96H394.245C394.185 63.72 393.305 63 391.865 63C390.325 63 389.485 63.64 389.485 64.82C389.485 65.64 390.045 66.22 391.205 66.52L392.805 66.94C394.485 67.38 395.225 68.16 395.225 69.5C395.225 71.14 393.825 72.24 391.725 72.24C389.685 72.24 388.385 71.14 388.385 69.4ZM406.988 72.24C404.168 72.24 402.568 70.04 402.568 67.2C402.568 64.36 404.168 62.16 406.988 62.16C408.688 62.16 410.008 62.92 410.708 64.48V57.56H411.628V72H410.888L410.748 69.84C410.028 71.48 408.648 72.24 406.988 72.24ZM407.088 71.4C409.388 71.4 410.688 69.64 410.688 67.2C410.688 64.78 409.388 63 407.088 63C404.808 63 403.508 64.78 403.508 67.2C403.508 69.64 404.808 71.4 407.088 71.4ZM417.394 72.24C415.334 72.24 414.154 71.1 414.154 69.46C414.154 67.7 415.514 66.58 417.754 66.4L421.054 66.14V65.78C421.054 63.62 419.774 63 418.254 63C416.474 63 415.414 63.84 415.414 65.24H414.494C414.494 63.36 416.014 62.16 418.274 62.16C420.334 62.16 421.974 63.16 421.974 65.64V72H421.234L421.054 70.2C420.394 71.5 419.054 72.24 417.394 72.24ZM417.514 71.42C419.774 71.42 421.054 69.78 421.054 67.42V66.9L417.834 67.16C415.894 67.32 415.074 68.26 415.074 69.44C415.074 70.76 416.074 71.42 417.514 71.42ZM425.809 72H424.889V62.4H425.629L425.829 64.26C426.469 62.92 427.789 62.16 429.229 62.16C431.949 62.16 432.969 63.76 432.969 66.16V72H432.049V66.34C432.049 63.8 430.949 63 429.209 63C427.029 63 425.809 64.62 425.809 67.04V72ZM434.908 69.4H435.808C435.808 70.64 436.728 71.4 438.208 71.4C439.828 71.4 440.828 70.68 440.828 69.5C440.828 68.56 440.368 68.08 439.128 67.76L437.508 67.34C435.868 66.92 435.088 66 435.088 64.82C435.088 63.22 436.408 62.16 438.388 62.16C440.368 62.16 441.608 63.22 441.668 64.96H440.768C440.708 63.72 439.828 63 438.388 63C436.848 63 436.008 63.64 436.008 64.82C436.008 65.64 436.568 66.22 437.728 66.52L439.328 66.94C441.008 67.38 441.748 68.16 441.748 69.5C441.748 71.14 440.348 72.24 438.248 72.24C436.208 72.24 434.908 71.14 434.908 69.4ZM450.811 72H449.891V57.56H450.811V72ZM455.812 58.92C455.812 59.98 454.952 60.94 453.892 61.12V60.48C454.512 60.36 454.992 59.86 454.992 59.36C454.892 59.44 454.732 59.5 454.472 59.5C454.032 59.5 453.612 59.18 453.612 58.56C453.612 57.98 454.032 57.54 454.652 57.54C455.232 57.54 455.812 58.02 455.812 58.92ZM456.825 67.2C456.825 64.3 458.845 62.16 461.585 62.16C464.325 62.16 466.345 64.3 466.345 67.2C466.345 70.1 464.325 72.24 461.585 72.24C458.845 72.24 456.825 70.1 456.825 67.2ZM457.765 67.2C457.765 69.66 459.345 71.4 461.585 71.4C463.825 71.4 465.405 69.66 465.405 67.2C465.405 64.74 463.825 63 461.585 63C459.345 63 457.765 64.74 457.765 67.2ZM469.579 72H468.659V62.4H469.399L469.599 64.26C470.239 62.92 471.559 62.16 472.999 62.16C475.719 62.16 476.739 63.76 476.739 66.16V72H475.819V66.34C475.819 63.8 474.719 63 472.979 63C470.799 63 469.579 64.62 469.579 67.04V72ZM478.935 66.9C478.935 64.36 480.575 62.16 483.415 62.16C485.195 62.16 486.535 63.04 487.175 64.64L487.295 62.4H488.035V71.8C488.035 74.48 486.255 76.28 483.575 76.28C481.255 76.28 479.595 74.98 479.195 72.78H480.095C480.455 74.46 481.755 75.44 483.595 75.44C485.715 75.44 487.135 73.98 487.135 71.8V69.2C486.475 70.74 485.055 71.64 483.315 71.64C480.555 71.64 478.935 69.44 478.935 66.9ZM479.875 66.9C479.875 69.02 481.155 70.8 483.375 70.8C485.655 70.8 486.975 69.14 486.975 66.88C486.975 64.66 485.715 63 483.415 63C481.135 63 479.875 64.8 479.875 66.9ZM492.081 72H491.161V57.56H492.081V72ZM499.102 72.24C496.322 72.24 494.482 70.24 494.482 67.22C494.482 64.22 496.302 62.16 498.982 62.16C501.482 62.16 503.202 63.96 503.202 66.58V67.22H495.402C495.482 69.84 496.842 71.4 499.102 71.4C500.802 71.4 501.882 70.66 502.262 69.24H503.202C502.642 71.22 501.262 72.24 499.102 72.24ZM498.982 63C497.022 63 495.642 64.36 495.422 66.46H502.262C502.262 64.38 500.962 63 498.982 63ZM507.156 72H506.236V63.2H504.296V62.4H506.236V59.36H507.156V62.4H509.096V63.2H507.156V72ZM518.507 60.1C518.507 60.68 518.087 61.12 517.467 61.12C516.887 61.12 516.307 60.64 516.307 59.74C516.307 58.68 517.167 57.72 518.227 57.54V58.18C517.607 58.3 517.127 58.8 517.127 59.3C517.227 59.22 517.387 59.16 517.647 59.16C518.087 59.16 518.507 59.48 518.507 60.1ZM521.427 60.1C521.427 60.68 521.007 61.12 520.387 61.12C519.807 61.12 519.227 60.64 519.227 59.74C519.227 58.68 520.087 57.72 521.147 57.54V58.18C520.527 58.3 520.047 58.8 520.047 59.3C520.147 59.22 520.307 59.16 520.567 59.16C521.007 59.16 521.427 59.48 521.427 60.1ZM525.387 72H524.427V57.8H525.387L530.827 70.84L536.247 57.8H537.227V72H536.267V64.22C536.267 61.9 536.307 60.7 536.367 59.76L531.307 72H530.347L525.287 59.82C525.327 60.22 525.387 61.88 525.387 64.22V72ZM544.453 72.24C541.673 72.24 539.833 70.24 539.833 67.22C539.833 64.22 541.653 62.16 544.333 62.16C546.833 62.16 548.553 63.96 548.553 66.58V67.22H540.753C540.833 69.84 542.193 71.4 544.453 71.4C546.153 71.4 547.233 70.66 547.613 69.24H548.553C547.993 71.22 546.613 72.24 544.453 72.24ZM544.333 63C542.373 63 540.993 64.36 540.773 66.46H547.613C547.613 64.38 546.313 63 544.333 63ZM550.006 69.4H550.906C550.906 70.64 551.826 71.4 553.306 71.4C554.926 71.4 555.926 70.68 555.926 69.5C555.926 68.56 555.466 68.08 554.226 67.76L552.606 67.34C550.966 66.92 550.186 66 550.186 64.82C550.186 63.22 551.506 62.16 553.486 62.16C555.466 62.16 556.706 63.22 556.766 64.96H555.866C555.806 63.72 554.926 63 553.486 63C551.946 63 551.106 63.64 551.106 64.82C551.106 65.64 551.666 66.22 552.826 66.52L554.426 66.94C556.106 67.38 556.846 68.16 556.846 69.5C556.846 71.14 555.446 72.24 553.346 72.24C551.306 72.24 550.006 71.14 550.006 69.4ZM564.189 67.24C564.189 64.2 565.989 62.16 568.749 62.16C570.809 62.16 572.349 63.38 572.789 65.2H571.849C571.449 63.78 570.169 62.98 568.749 62.98C566.609 62.98 565.089 64.62 565.089 67.22C565.089 69.7 566.489 71.4 568.629 71.4C570.169 71.4 571.449 70.52 571.889 69.22H572.829C572.309 71.04 570.669 72.24 568.629 72.24C565.989 72.24 564.189 70.24 564.189 67.24ZM574.325 67.2C574.325 64.3 576.345 62.16 579.085 62.16C581.825 62.16 583.845 64.3 583.845 67.2C583.845 70.1 581.825 72.24 579.085 72.24C576.345 72.24 574.325 70.1 574.325 67.2ZM575.265 67.2C575.265 69.66 576.845 71.4 579.085 71.4C581.325 71.4 582.905 69.66 582.905 67.2C582.905 64.74 581.325 63 579.085 63C576.845 63 575.265 64.74 575.265 67.2ZM592.764 62.4H593.684V72H592.944L592.764 70.22C592.244 71.42 590.884 72.24 589.284 72.24C586.984 72.24 585.804 70.66 585.804 68.32V62.38H586.744V68.08C586.744 70.54 587.904 71.4 589.504 71.4C591.524 71.4 592.764 70 592.764 67.52V62.4ZM601.305 62.26V63.06H600.585C598.805 63.06 597.645 64.36 597.645 66.16V72H596.725V62.4H597.585L597.665 63.94C598.045 62.86 599.105 62.16 600.465 62.16C600.765 62.16 600.985 62.18 601.305 62.26ZM602.369 69.4H603.269C603.269 70.64 604.189 71.4 605.669 71.4C607.289 71.4 608.289 70.68 608.289 69.5C608.289 68.56 607.829 68.08 606.589 67.76L604.969 67.34C603.329 66.92 602.549 66 602.549 64.82C602.549 63.22 603.869 62.16 605.849 62.16C607.829 62.16 609.069 63.22 609.129 64.96H608.229C608.169 63.72 607.289 63 605.849 63C604.309 63 603.469 63.64 603.469 64.82C603.469 65.64 604.029 66.22 605.189 66.52L606.789 66.94C608.469 67.38 609.209 68.16 609.209 69.5C609.209 71.14 607.809 72.24 605.709 72.24C603.669 72.24 602.369 71.14 602.369 69.4ZM612.941 58.92C612.941 59.98 612.081 60.94 611.021 61.12V60.48C611.641 60.36 612.121 59.86 612.121 59.36C612.021 59.44 611.861 59.5 611.601 59.5C611.161 59.5 610.741 59.18 610.741 58.56C610.741 57.98 611.161 57.54 611.781 57.54C612.361 57.54 612.941 58.02 612.941 58.92ZM615.861 58.92C615.861 59.98 615.001 60.94 613.941 61.12V60.48C614.561 60.36 615.041 59.86 615.041 59.36C614.941 59.44 614.781 59.5 614.521 59.5C614.081 59.5 613.661 59.18 613.661 58.56C613.661 57.98 614.081 57.54 614.701 57.54C615.281 57.54 615.861 58.02 615.861 58.92ZM617.959 72.22C617.359 72.22 616.859 71.72 616.859 71.14C616.859 70.54 617.359 70.04 617.959 70.04C618.559 70.04 619.059 70.54 619.059 71.14C619.059 71.72 618.559 72.22 617.959 72.22Z" fill="white" fill-opacity="0.75"/>
<g opacity="0.5">
<path d="M331.5 130.333C331.502 129.667 331.371 129.006 331.114 128.391C330.857 127.776 330.479 127.219 330.004 126.752C329.528 126.284 328.964 125.917 328.344 125.671C327.725 125.425 327.062 125.306 326.396 125.32C325.729 125.334 325.072 125.481 324.464 125.752C323.855 126.024 323.306 126.414 322.851 126.901C322.395 127.387 322.041 127.96 321.81 128.585C321.579 129.211 321.475 129.876 321.505 130.542M331.5 130.333V152M331.5 130.333C331.498 129.667 331.629 129.006 331.886 128.391C332.143 127.776 332.521 127.219 332.996 126.752C333.472 126.284 334.036 125.917 334.656 125.671C335.275 125.425 335.938 125.306 336.604 125.32C337.271 125.334 337.928 125.481 338.536 125.752C339.145 126.024 339.694 126.414 340.149 126.901C340.605 127.387 340.959 127.96 341.19 128.585C341.421 129.211 341.525 129.876 341.495 130.542M321.505 130.542C320.525 130.794 319.616 131.265 318.845 131.921C318.075 132.576 317.464 133.398 317.058 134.325C316.652 135.251 316.463 136.258 316.504 137.269C316.545 138.28 316.816 139.268 317.295 140.158M321.505 130.542C321.538 131.348 321.766 132.134 322.168 132.833M317.295 140.158C316.452 140.843 315.789 141.724 315.364 142.723C314.939 143.723 314.764 144.811 314.856 145.893C314.947 146.976 315.301 148.019 315.888 148.933C316.475 149.847 317.276 150.604 318.222 151.138M317.295 140.158C317.6 139.91 317.926 139.691 318.27 139.5M318.222 151.138C318.105 152.042 318.175 152.96 318.427 153.836C318.678 154.712 319.107 155.526 319.686 156.23C320.265 156.933 320.983 157.511 321.794 157.926C322.605 158.342 323.492 158.587 324.402 158.646C325.311 158.705 326.223 158.577 327.081 158.269C327.939 157.962 328.724 157.482 329.39 156.86C330.055 156.237 330.585 155.484 330.948 154.648C331.311 153.813 331.499 152.911 331.5 152M318.222 151.138C319.222 151.703 320.351 152.001 321.5 152M331.5 152C331.501 152.911 331.689 153.813 332.052 154.648C332.415 155.484 332.945 156.237 333.61 156.86C334.276 157.482 335.061 157.962 335.919 158.269C336.777 158.577 337.689 158.705 338.598 158.646C339.508 158.587 340.395 158.342 341.206 157.926C342.017 157.511 342.735 156.933 343.314 156.23C343.893 155.526 344.322 154.712 344.574 153.836C344.825 152.96 344.895 152.042 344.778 151.138M341.495 130.542C342.475 130.794 343.384 131.265 344.155 131.921C344.925 132.576 345.536 133.398 345.942 134.325C346.348 135.251 346.537 136.258 346.496 137.269C346.455 138.28 346.185 139.268 345.705 140.158M341.495 130.542C341.462 131.348 341.235 132.134 340.832 132.833M345.705 140.158C346.548 140.843 347.211 141.724 347.636 142.723C348.061 143.723 348.236 144.811 348.144 145.893C348.053 146.976 347.699 148.019 347.112 148.933C346.525 149.847 345.724 150.604 344.778 151.138M345.705 140.158C345.4 139.91 345.074 139.691 344.73 139.5M344.778 151.138C343.778 151.703 342.649 152.001 341.5 152M336.5 143.667C335.101 143.174 333.879 142.278 332.989 141.092C332.099 139.905 331.581 138.481 331.5 137C331.419 138.481 330.901 139.905 330.011 141.092C329.121 142.278 327.899 143.174 326.5 143.667" stroke="#3678FF" stroke-width="3" stroke-linecap="round" stroke-linejoin="round"/>
<path d="M379.22 140L382.8 135.18H384.48L380.72 140.16C381.4 139.82 382.02 139.68 382.68 139.68C385.66 139.68 387.64 141.86 387.64 144.66C387.64 147.6 385.42 149.74 382.56 149.74C379.68 149.74 377.42 147.52 377.42 144.66C377.42 143 377.88 141.84 379.22 140ZM378.88 144.68C378.88 146.86 380.38 148.44 382.56 148.44C384.68 148.44 386.2 146.86 386.2 144.68C386.2 142.5 384.68 140.94 382.56 140.94C380.38 140.94 378.88 142.5 378.88 144.68ZM398.656 149.5H389.216V148.36L393.796 144.36C396.436 142.06 397.116 141.06 397.116 139.36C397.116 137.42 395.956 136.24 394.056 136.24C392.076 136.24 390.776 137.68 390.716 139.9H389.276C389.356 136.9 391.256 134.92 394.076 134.92C396.776 134.92 398.576 136.66 398.576 139.28C398.576 141.36 397.636 142.74 394.776 145.24L391.436 148.16H398.656V149.5ZM405.854 144.62C405.854 141.7 407.534 139.56 410.334 139.56C411.954 139.56 413.294 140.28 413.994 141.78L414.134 139.82H415.334V153.72H413.954V147.64C413.274 149.04 411.974 149.74 410.334 149.74C407.474 149.74 405.854 147.54 405.854 144.62ZM407.254 144.66C407.254 146.88 408.474 148.5 410.574 148.5C412.694 148.5 413.934 146.88 413.934 144.66C413.934 142.42 412.694 140.82 410.574 140.82C408.474 140.82 407.254 142.42 407.254 144.66ZM425.013 139.82H426.393V149.5H425.193L425.013 147.86C424.473 148.98 423.133 149.74 421.613 149.74C419.333 149.74 418.093 148.18 418.093 145.82V139.8H419.493V145.38C419.493 147.68 420.513 148.5 422.053 148.5C423.913 148.5 425.013 147.26 425.013 144.96V139.82ZM433.133 149.74C430.293 149.74 428.393 147.7 428.393 144.66C428.393 141.64 430.273 139.56 433.033 139.56C435.653 139.56 437.433 141.42 437.433 144.16V144.84H429.733C429.833 147.2 431.073 148.56 433.153 148.56C434.733 148.56 435.753 147.88 436.113 146.6H437.433C436.913 148.64 435.413 149.74 433.133 149.74ZM433.033 140.74C431.213 140.74 430.013 141.94 429.773 143.84H436.053C436.053 141.98 434.853 140.74 433.033 140.74ZM438.819 146.78H440.139C440.139 147.9 440.979 148.6 442.339 148.6C443.839 148.6 444.719 147.96 444.719 146.92C444.719 146.12 444.319 145.66 443.179 145.38L441.519 144.96C439.839 144.54 439.019 143.66 439.019 142.34C439.019 140.64 440.439 139.56 442.519 139.56C444.559 139.56 445.879 140.68 445.939 142.48H444.599C444.559 141.36 443.779 140.7 442.479 140.7C441.119 140.7 440.359 141.28 440.359 142.32C440.359 143.06 440.879 143.58 441.939 143.84L443.599 144.26C445.279 144.68 446.039 145.46 446.039 146.86C446.039 148.6 444.559 149.74 442.359 149.74C440.179 149.74 438.819 148.58 438.819 146.78ZM450.531 149.5H449.171V140.98H447.231V139.82H449.171V136.76H450.531V139.82H452.471V140.98H450.531V149.5ZM454.948 137.16C454.388 137.16 453.928 136.7 453.928 136.14C453.928 135.58 454.388 135.1 454.948 135.1C455.508 135.1 455.988 135.58 455.988 136.14C455.988 136.7 455.508 137.16 454.948 137.16ZM454.268 149.5V139.82H455.648V149.5H454.268ZM457.846 144.66C457.846 141.7 459.926 139.56 462.766 139.56C465.606 139.56 467.686 141.7 467.686 144.66C467.686 147.6 465.606 149.74 462.766 149.74C459.926 149.74 457.846 147.6 457.846 144.66ZM459.246 144.64C459.246 146.92 460.686 148.5 462.766 148.5C464.826 148.5 466.286 146.92 466.286 144.64C466.286 142.4 464.826 140.8 462.766 140.8C460.686 140.8 459.246 142.4 459.246 144.64ZM471.273 149.5H469.893V139.82H471.093L471.293 141.5C471.933 140.26 473.213 139.56 474.613 139.56C477.273 139.56 478.373 141.14 478.373 143.58V149.5H476.993V143.88C476.993 141.62 475.973 140.82 474.373 140.82C472.393 140.82 471.273 142.26 471.273 144.44V149.5ZM480.186 146.78H481.506C481.506 147.9 482.346 148.6 483.706 148.6C485.206 148.6 486.086 147.96 486.086 146.92C486.086 146.12 485.686 145.66 484.546 145.38L482.886 144.96C481.206 144.54 480.386 143.66 480.386 142.34C480.386 140.64 481.806 139.56 483.886 139.56C485.926 139.56 487.246 140.68 487.306 142.48H485.966C485.926 141.36 485.146 140.7 483.846 140.7C482.486 140.7 481.726 141.28 481.726 142.32C481.726 143.06 482.246 143.58 483.306 143.84L484.966 144.26C486.646 144.68 487.406 145.46 487.406 146.86C487.406 148.6 485.926 149.74 483.726 149.74C481.546 149.74 480.186 148.58 480.186 146.78Z" fill="white"/>
</g>
<g opacity="0.5">
<path d="M318.167 244.5V219.5C318.167 218.395 318.606 217.335 319.387 216.554C320.169 215.772 321.229 215.333 322.334 215.333H343.167C343.609 215.333 344.033 215.509 344.346 215.822C344.658 216.134 344.834 216.558 344.834 217V247C344.834 247.442 344.658 247.866 344.346 248.179C344.033 248.491 343.609 248.667 343.167 248.667H322.334C321.229 248.667 320.169 248.228 319.387 247.446C318.606 246.665 318.167 245.605 318.167 244.5ZM318.167 244.5C318.167 243.395 318.606 242.335 319.387 241.554C320.169 240.772 321.229 240.333 322.334 240.333H344.834M326.5 227.833L329.834 231.167L336.5 224.5" stroke="#3678FF" stroke-width="3" stroke-linecap="round" stroke-linejoin="round"/>
<path d="M381.56 231.82H380.42V230.82L384.84 226.46H377.98V225.18H386.66V226.34L382.38 230.6C385.06 230.74 386.98 232.44 386.98 235.04C386.98 237.88 384.9 239.74 382 239.74C379.18 239.74 377.28 238 377.28 235.14H378.7C378.7 237.2 379.98 238.44 382 238.44C384.14 238.44 385.52 237.08 385.52 235C385.52 233.04 384.12 231.82 381.56 231.82ZM401.234 239.5V230.98H396.634V239.5H395.254V230.98H393.774V229.82H395.254V227.94C395.254 225.76 396.434 224.92 397.874 224.92C398.214 224.92 398.634 224.94 398.954 225V226.2H398.114C396.954 226.2 396.634 226.8 396.634 227.94V229.82H402.614V239.5H401.234ZM401.914 227.06C401.354 227.06 400.954 226.66 400.954 226.1C400.954 225.54 401.354 225.12 401.914 225.12C402.454 225.12 402.874 225.54 402.874 226.1C402.874 226.66 402.454 227.06 401.914 227.06ZM404.76 234.68C404.76 231.64 406.62 229.56 409.44 229.56C411.68 229.56 413.32 230.86 413.7 232.86H412.32C411.96 231.52 410.8 230.78 409.46 230.78C407.5 230.78 406.12 232.28 406.12 234.66C406.12 236.96 407.4 238.5 409.36 238.5C410.8 238.5 411.96 237.7 412.34 236.46H413.74C413.28 238.44 411.56 239.74 409.36 239.74C406.62 239.74 404.76 237.72 404.76 234.68ZM417.211 239.48H415.831V224.92H417.211V231.5C417.831 230.34 419.011 229.56 420.631 229.56C423.171 229.56 424.311 231.14 424.311 233.58V239.5H422.931V233.88C422.931 231.62 421.871 230.82 420.371 230.82C418.291 230.82 417.211 232.36 417.211 234.22V239.48ZM431.121 239.74C428.281 239.74 426.381 237.7 426.381 234.66C426.381 231.64 428.261 229.56 431.021 229.56C433.641 229.56 435.421 231.42 435.421 234.16V234.84H427.721C427.821 237.2 429.061 238.56 431.141 238.56C432.721 238.56 433.741 237.88 434.101 236.6H435.421C434.901 238.64 433.401 239.74 431.121 239.74ZM431.021 230.74C429.201 230.74 428.001 231.94 427.761 233.84H434.041C434.041 231.98 432.841 230.74 431.021 230.74ZM436.808 236.78H438.128C438.128 237.9 438.968 238.6 440.328 238.6C441.828 238.6 442.708 237.96 442.708 236.92C442.708 236.12 442.308 235.66 441.168 235.38L439.508 234.96C437.828 234.54 437.008 233.66 437.008 232.34C437.008 230.64 438.428 229.56 440.508 229.56C442.548 229.56 443.868 230.68 443.928 232.48H442.588C442.548 231.36 441.768 230.7 440.468 230.7C439.108 230.7 438.348 231.28 438.348 232.32C438.348 233.06 438.868 233.58 439.928 233.84L441.588 234.26C443.268 234.68 444.028 235.46 444.028 236.86C444.028 238.6 442.548 239.74 440.348 239.74C438.168 239.74 436.808 238.58 436.808 236.78Z" fill="white"/>
</g>
<rect x="30" y="302" width="740" height="67" rx="33.5" fill="#3678FF"/>
<path d="M320.72 335.76C320.72 340.16 317.84 343.24 313.74 343.24C309.66 343.24 306.82 340.16 306.82 335.76C306.82 331.38 309.68 328.28 313.76 328.28C317.86 328.28 320.72 331.36 320.72 335.76ZM318.66 335.76C318.66 332.4 316.7 330.18 313.76 330.18C310.82 330.18 308.88 332.4 308.88 335.76C308.88 339.12 310.82 341.36 313.76 341.36C316.7 341.36 318.66 339.1 318.66 335.76ZM329.667 333.22H331.527V343H329.847L329.647 341.52C329.087 342.54 327.787 343.24 326.347 343.24C324.067 343.24 322.787 341.7 322.787 339.3V333.22H324.667V338.68C324.667 340.78 325.567 341.58 327.007 341.58C328.727 341.58 329.667 340.48 329.667 338.38V333.22ZM336.995 343L333.055 333.22H335.055L337.195 338.68C337.535 339.6 337.815 340.42 337.975 341.02C338.135 340.38 338.455 339.54 338.795 338.68L340.975 333.22H342.935L338.855 343H336.995ZM350.03 333.14V334.86H349.19C347.41 334.86 346.31 335.94 346.31 337.82V343H344.43V333.24H346.19L346.31 334.72C346.71 333.7 347.69 333.02 349.03 333.02C349.37 333.02 349.65 333.06 350.03 333.14ZM352.714 330.9C352.034 330.9 351.474 330.34 351.474 329.66C351.474 328.96 352.034 328.42 352.714 328.42C353.394 328.42 353.954 328.96 353.954 329.66C353.954 330.34 353.394 330.9 352.714 330.9ZM351.794 343V333.22H353.674V343H351.794ZM362.003 333.14V334.86H361.163C359.383 334.86 358.283 335.94 358.283 337.82V343H356.403V333.24H358.163L358.283 334.72C358.683 333.7 359.663 333.02 361.003 333.02C361.343 333.02 361.623 333.06 362.003 333.14ZM371.155 343H369.275V328.28H371.155V343ZM378.143 343.24C375.263 343.24 373.283 341.16 373.283 338.12C373.283 335.06 375.223 332.94 378.063 332.94C380.843 332.94 382.662 334.86 382.662 337.76V338.46L375.103 338.48C375.243 340.54 376.323 341.68 378.183 341.68C379.643 341.68 380.603 341.08 380.923 339.96H382.683C382.203 342.06 380.563 343.24 378.143 343.24ZM378.063 334.52C376.423 334.52 375.383 335.5 375.143 337.22H380.783C380.783 335.6 379.723 334.52 378.063 334.52ZM389.591 338.12C389.591 335.06 391.531 332.94 394.391 332.94C396.851 332.94 398.571 334.34 398.911 336.52H397.031C396.711 335.28 395.711 334.62 394.451 334.62C392.671 334.62 391.451 335.98 391.451 338.1C391.451 340.2 392.591 341.56 394.371 341.56C395.711 341.56 396.711 340.86 397.051 339.7H398.931C398.551 341.82 396.731 343.24 394.371 343.24C391.491 343.24 389.591 341.2 389.591 338.12ZM400.275 338.1C400.275 335.08 402.435 332.96 405.375 332.96C408.295 332.96 410.455 335.08 410.455 338.1C410.455 341.12 408.295 343.24 405.375 343.24C402.435 343.24 400.275 341.12 400.275 338.1ZM402.175 338.1C402.175 340.14 403.475 341.56 405.375 341.56C407.255 341.56 408.575 340.14 408.575 338.1C408.575 336.06 407.255 334.64 405.375 334.64C403.475 334.64 402.175 336.06 402.175 338.1ZM419.061 333.22H420.921V343H419.241L419.041 341.52C418.481 342.54 417.181 343.24 415.741 343.24C413.461 343.24 412.181 341.7 412.181 339.3V333.22H414.061V338.68C414.061 340.78 414.961 341.58 416.401 341.58C418.121 341.58 419.061 340.48 419.061 338.38V333.22ZM429.249 333.14V334.86H428.409C426.629 334.86 425.529 335.94 425.529 337.82V343H423.649V333.24H425.409L425.529 334.72C425.929 333.7 426.909 333.02 428.249 333.02C428.589 333.02 428.869 333.06 429.249 333.14ZM430.212 340.16H432.012C432.012 341.16 432.772 341.76 434.012 341.76C435.332 341.76 436.092 341.22 436.092 340.32C436.092 339.66 435.772 339.26 434.752 339L433.032 338.6C431.292 338.18 430.472 337.32 430.472 335.88C430.472 334.08 431.992 332.94 434.152 332.94C436.292 332.94 437.692 334.14 437.732 336H435.932C435.892 335.02 435.232 334.4 434.092 334.4C432.912 334.4 432.252 334.92 432.252 335.82C432.252 336.48 432.732 336.92 433.692 337.16L435.412 337.58C437.072 337.98 437.892 338.74 437.892 340.2C437.892 342.06 436.292 343.24 433.972 343.24C431.672 343.24 430.212 342.02 430.212 340.16Z" fill="white"/>
<path d="M476.292 330.292H486.709M486.709 330.292V340.708M486.709 330.292L476.292 340.708" stroke="white" stroke-width="2" stroke-linecap="round" stroke-linejoin="round"/>
</svg>
