<svg width="300" height="150" viewBox="0 0 300 150" fill="none" xmlns="http://www.w3.org/2000/svg">
<rect width="300" height="150" rx="20" fill="#3678FF" fill-opacity="0.15"/>
<rect x="1" y="1" width="298" height="148" rx="19" stroke="#3678FF" stroke-opacity="0.5" stroke-width="2"/>
<path d="M23.21 19.505V18.155H31.205V19.505H27.95V29H26.48V19.505H23.21ZM32.1514 29H30.6214L34.5814 18.155H36.2164L40.1914 29H38.6464L37.6714 26.3H33.1114L32.1514 29ZM35.2114 20.495L33.5614 25.025H37.2364L35.5714 20.495C35.4964 20.285 35.4214 20.03 35.3914 19.865C35.3614 20.015 35.2864 20.27 35.2114 20.495ZM41.1039 25.145V18.155H42.5739V25.055C42.5739 26.795 43.5339 27.755 45.2589 27.755C46.9689 27.755 47.9139 26.78 47.9139 25.055V18.155H49.3989V25.145C49.3989 27.635 47.8089 29.18 45.2589 29.18C42.6939 29.18 41.1039 27.65 41.1039 25.145ZM54.543 23.585L50.838 18.155H52.593L54.288 20.57C54.768 21.275 55.128 21.875 55.443 22.475L58.308 18.155H60.003L56.373 23.57L60.048 29H58.308L56.643 26.615C56.223 26 55.818 25.34 55.458 24.71L52.548 29H50.823L54.543 23.585ZM69.1975 29H65.6125V18.155H69.1375C72.3775 18.155 74.5675 20.345 74.5675 23.585C74.5675 26.81 72.4075 29 69.1975 29ZM69.0325 19.505H67.0825V27.635H69.0925C71.5075 27.635 73.0375 26.075 73.0375 23.585C73.0375 21.065 71.5075 19.505 69.0325 19.505ZM83.0527 29H76.4377V18.155H83.0527V19.505H77.9077V22.895H82.5427V24.2H77.9077V27.635H83.0527V29ZM90.7544 29H89.2844V18.155H93.3794C95.7044 18.155 97.0844 19.385 97.0844 21.41C97.0844 22.91 96.3344 23.99 94.9844 24.425L97.1894 29H95.5544L93.5294 24.71H90.7544V29ZM90.7544 19.475V23.405H93.3944C94.7594 23.405 95.5394 22.67 95.5394 21.425C95.5394 20.165 94.7294 19.475 93.3794 19.475H90.7544ZM104.214 15.365L102.909 17.36H101.829L102.834 15.365H104.214ZM105.714 29H99.0989V18.155H105.714V19.505H100.569V22.895H105.204V24.2H100.569V27.635H105.714V29ZM107.769 25.145V18.155H109.239V25.055C109.239 26.795 110.199 27.755 111.924 27.755C113.634 27.755 114.579 26.78 114.579 25.055V18.155H116.064V25.145C116.064 27.635 114.474 29.18 111.924 29.18C109.359 29.18 107.769 27.65 107.769 25.145ZM117.878 21.08C117.878 19.22 119.378 17.96 121.613 17.96C123.683 17.96 125.018 19.115 125.138 20.99H123.653C123.578 19.91 122.813 19.28 121.598 19.28C120.233 19.28 119.348 19.97 119.348 21.035C119.348 21.905 119.843 22.43 120.863 22.67L122.648 23.09C124.418 23.495 125.318 24.455 125.318 25.985C125.318 27.935 123.803 29.18 121.493 29.18C119.288 29.18 117.818 28.025 117.728 26.165H119.228C119.258 27.2 120.128 27.86 121.493 27.86C122.933 27.86 123.848 27.185 123.848 26.105C123.848 25.25 123.383 24.71 122.348 24.47L120.563 24.065C118.793 23.66 117.878 22.64 117.878 21.08ZM126.594 21.08C126.594 19.22 128.094 17.96 130.329 17.96C132.399 17.96 133.734 19.115 133.854 20.99H132.369C132.294 19.91 131.529 19.28 130.314 19.28C128.949 19.28 128.064 19.97 128.064 21.035C128.064 21.905 128.559 22.43 129.579 22.67L131.364 23.09C133.134 23.495 134.034 24.455 134.034 25.985C134.034 27.935 132.519 29.18 130.209 29.18C128.004 29.18 126.534 28.025 126.444 26.165H127.944C127.974 27.2 128.844 27.86 130.209 27.86C131.649 27.86 132.564 27.185 132.564 26.105C132.564 25.25 132.099 24.71 131.064 24.47L129.279 24.065C127.509 23.66 126.594 22.64 126.594 21.08ZM137.351 18.155V29H135.881V18.155H137.351ZM138.83 19.505V18.155H146.825V19.505H143.57V29H142.1V19.505H138.83ZM154.918 29H148.303V18.155H154.918V19.505H149.773V22.895H154.408V24.2H149.773V27.635H154.918V29ZM162.59 29H161.15V18.155H162.59L166.325 27.275L170.06 18.155H171.53V29H170.09V24.71C170.09 22.685 170.105 21.95 170.18 21.185L167.015 29H165.635L162.485 21.215C162.56 21.74 162.59 22.85 162.59 24.365V29ZM183.835 23.57C183.835 26.87 181.675 29.18 178.6 29.18C175.54 29.18 173.41 26.87 173.41 23.57C173.41 20.285 175.555 17.96 178.615 17.96C181.69 17.96 183.835 20.27 183.835 23.57ZM182.29 23.57C182.29 21.05 180.82 19.385 178.615 19.385C176.41 19.385 174.955 21.05 174.955 23.57C174.955 26.09 176.41 27.77 178.615 27.77C180.82 27.77 182.29 26.075 182.29 23.57ZM187.504 24.59L183.829 18.155H185.479L187.894 22.49C188.044 22.745 188.134 22.955 188.254 23.21C188.389 22.94 188.419 22.85 188.614 22.49L191.014 18.155H192.619L188.974 24.59V29H187.504V24.59ZM200.65 29H194.035V18.155H200.65V19.505H195.505V22.895H200.14V24.2H195.505V27.635H200.65V29ZM204.251 29H202.781V18.155H204.251L209.801 26.54V18.155H211.271V29H209.801L204.251 20.615V29Z" fill="#3678FF" fill-opacity="0.75"/>
<path d="M28.512 62.728H60.832V68.488L43.296 109H36.768L54.496 68.488H28.512V62.728ZM96.257 99.656H90.753V109H84.737V99.656H60.801V94.088L82.625 62.728H90.753V94.088H96.257V99.656ZM67.585 94.088H84.737V69.384L67.585 94.088ZM125.361 73.672C125.361 80.52 120.497 85.448 113.649 85.448C106.865 85.448 102.001 80.52 102.001 73.672C102.001 66.76 106.865 61.832 113.649 61.832C120.497 61.832 125.361 66.76 125.361 73.672ZM149.745 62.792L114.609 109H108.465L143.601 62.792H149.745ZM120.433 73.672C120.433 69.512 117.681 66.632 113.649 66.632C109.681 66.632 106.929 69.512 106.929 73.672C106.929 77.768 109.681 80.648 113.649 80.648C117.617 80.648 120.433 77.768 120.433 73.672ZM156.337 98.056C156.337 104.904 151.409 109.832 144.625 109.832C137.841 109.832 132.913 104.904 132.913 98.056C132.913 91.144 137.841 86.28 144.625 86.28C151.409 86.28 156.337 91.144 156.337 98.056ZM151.345 98.056C151.345 93.896 148.657 91.016 144.625 91.016C140.657 91.016 137.905 93.896 137.905 98.056C137.905 102.152 140.657 105.032 144.625 105.032C148.593 105.032 151.345 102.152 151.345 98.056Z" fill="#3678FF"/>
<path d="M170.434 107.096H171.358C171.358 107.88 171.946 108.37 172.898 108.37C173.948 108.37 174.564 107.922 174.564 107.194C174.564 106.634 174.284 106.312 173.486 106.116L172.324 105.822C171.148 105.528 170.574 104.912 170.574 103.988C170.574 102.798 171.568 102.042 173.024 102.042C174.452 102.042 175.376 102.826 175.418 104.086H174.48C174.452 103.302 173.906 102.84 172.996 102.84C172.044 102.84 171.512 103.246 171.512 103.974C171.512 104.492 171.876 104.856 172.618 105.038L173.78 105.332C174.956 105.626 175.488 106.172 175.488 107.152C175.488 108.37 174.452 109.168 172.912 109.168C171.386 109.168 170.434 108.356 170.434 107.096ZM181.838 102.224H182.804V109H181.964L181.838 107.852C181.46 108.636 180.522 109.168 179.458 109.168C177.862 109.168 176.994 108.076 176.994 106.424V102.21H177.974V106.116C177.974 107.726 178.688 108.3 179.766 108.3C181.068 108.3 181.838 107.432 181.838 105.822V102.224ZM188.359 102.14V103.008H187.827C186.581 103.008 185.783 103.848 185.783 105.136V109H184.817V102.224H185.727L185.797 103.274C186.063 102.546 186.777 102.07 187.729 102.07C187.939 102.07 188.121 102.084 188.359 102.14ZM195.052 99.886H193.008V98.976H196.018V109H195.052V99.886ZM204.431 109H197.823V108.202L201.029 105.402C202.877 103.792 203.353 103.092 203.353 101.902C203.353 100.544 202.541 99.718 201.211 99.718C199.825 99.718 198.915 100.726 198.873 102.28H197.865C197.921 100.18 199.251 98.794 201.225 98.794C203.115 98.794 204.375 100.012 204.375 101.846C204.375 103.302 203.717 104.268 201.715 106.018L199.377 108.062H204.431V109ZM209.946 111.954V102.224H210.785L210.884 103.596C211.36 102.546 212.312 102.042 213.446 102.042C215.406 102.042 216.582 103.54 216.582 105.584C216.582 107.628 215.448 109.168 213.446 109.168C212.298 109.168 211.388 108.678 210.912 107.698V111.954H209.946ZM210.926 105.612C210.926 107.166 211.794 108.3 213.278 108.3C214.748 108.3 215.602 107.166 215.602 105.612C215.602 104.044 214.748 102.924 213.278 102.924C211.794 102.924 210.926 104.044 210.926 105.612ZM220.963 109.168C218.975 109.168 217.645 107.74 217.645 105.612C217.645 103.498 218.961 102.042 220.893 102.042C222.727 102.042 223.973 103.344 223.973 105.262V105.738H218.583C218.653 107.39 219.521 108.342 220.977 108.342C222.083 108.342 222.797 107.866 223.049 106.97H223.973C223.609 108.398 222.559 109.168 220.963 109.168ZM220.893 102.868C219.619 102.868 218.779 103.708 218.611 105.038H223.007C223.007 103.736 222.167 102.868 220.893 102.868ZM229.06 102.14V103.008H228.528C227.282 103.008 226.484 103.848 226.484 105.136V109H225.518V102.224H226.428L226.498 103.274C226.764 102.546 227.478 102.07 228.43 102.07C228.64 102.07 228.822 102.084 229.06 102.14ZM229.77 107.096H230.694C230.694 107.88 231.282 108.37 232.234 108.37C233.284 108.37 233.9 107.922 233.9 107.194C233.9 106.634 233.62 106.312 232.822 106.116L231.66 105.822C230.484 105.528 229.91 104.912 229.91 103.988C229.91 102.798 230.904 102.042 232.36 102.042C233.788 102.042 234.712 102.826 234.754 104.086H233.816C233.788 103.302 233.242 102.84 232.332 102.84C231.38 102.84 230.848 103.246 230.848 103.974C230.848 104.492 231.212 104.856 231.954 105.038L233.116 105.332C234.292 105.626 234.824 106.172 234.824 107.152C234.824 108.37 233.788 109.168 232.248 109.168C230.722 109.168 229.77 108.356 229.77 107.096ZM235.938 105.612C235.938 103.54 237.394 102.042 239.382 102.042C241.37 102.042 242.826 103.54 242.826 105.612C242.826 107.67 241.37 109.168 239.382 109.168C237.394 109.168 235.938 107.67 235.938 105.612ZM236.918 105.598C236.918 107.194 237.926 108.3 239.382 108.3C240.824 108.3 241.846 107.194 241.846 105.598C241.846 104.03 240.824 102.91 239.382 102.91C237.926 102.91 236.918 104.03 236.918 105.598ZM245.337 109H244.371V102.224H245.211L245.351 103.4C245.799 102.532 246.695 102.042 247.675 102.042C249.537 102.042 250.307 103.148 250.307 104.856V109H249.341V105.066C249.341 103.484 248.627 102.924 247.507 102.924C246.121 102.924 245.337 103.932 245.337 105.458V109ZM253.199 109H252.233V102.224H253.073L253.213 103.4C253.661 102.532 254.557 102.042 255.537 102.042C257.399 102.042 258.169 103.148 258.169 104.856V109H257.203V105.066C257.203 103.484 256.489 102.924 255.369 102.924C253.983 102.924 253.199 103.932 253.199 105.458V109ZM262.936 109.168C260.948 109.168 259.618 107.74 259.618 105.612C259.618 103.498 260.934 102.042 262.866 102.042C264.7 102.042 265.946 103.344 265.946 105.262V105.738H260.556C260.626 107.39 261.494 108.342 262.95 108.342C264.056 108.342 264.77 107.866 265.022 106.97H265.946C265.582 108.398 264.532 109.168 262.936 109.168ZM262.866 102.868C261.592 102.868 260.752 103.708 260.584 105.038H264.98C264.98 103.736 264.14 102.868 262.866 102.868ZM266.916 107.096H267.84C267.84 107.88 268.428 108.37 269.38 108.37C270.43 108.37 271.046 107.922 271.046 107.194C271.046 106.634 270.766 106.312 269.968 106.116L268.806 105.822C267.63 105.528 267.056 104.912 267.056 103.988C267.056 102.798 268.05 102.042 269.506 102.042C270.934 102.042 271.858 102.826 271.9 104.086H270.962C270.934 103.302 270.388 102.84 269.478 102.84C268.526 102.84 267.994 103.246 267.994 103.974C267.994 104.492 268.358 104.856 269.1 105.038L270.262 105.332C271.438 105.626 271.97 106.172 271.97 107.152C271.97 108.37 270.934 109.168 269.394 109.168C267.868 109.168 266.916 108.356 266.916 107.096Z" fill="#3678FF"/>
</svg>
